<svg width="60" height="60" viewBox="0 0 60 60" fill="none" xmlns="http://www.w3.org/2000/svg">
<path d="M15.5225 30.81H11.0025C9.55501 30.81 8.38251 31.985 8.38251 33.43V50.505C8.38251 51.95 9.55751 53.125 11.0025 53.125H15.525C16.975 53.125 18.1475 51.95 18.1475 50.5025V33.43C18.1468 32.7347 17.8703 32.068 17.3787 31.5763C16.887 31.0847 16.2203 30.8082 15.525 30.8075M32.26 6.875H27.74C26.29 6.875 25.1175 8.05 25.1175 9.4975V50.5C25.1175 51.95 26.2925 53.1225 27.7425 53.1225H32.26C33.71 53.1225 34.8825 51.9475 34.8825 50.5V9.5C34.8825 8.05 33.7075 6.8775 32.2575 6.8775M48.9975 19.8175H44.475C43.025 19.8175 41.8525 20.9925 41.8525 22.4425V50.5C41.8525 51.95 43.0275 53.1225 44.475 53.1225H48.995C49.6903 53.1218 50.357 52.8453 50.8487 52.3537C51.3403 51.862 51.6168 51.1953 51.6175 50.5V22.44C51.6175 20.99 50.4425 19.8175 48.9925 19.8175" fill="black"/>
<path d="M15.5225 30.81H11.0025C9.55501 30.81 8.38251 31.985 8.38251 33.43V50.505C8.38251 51.95 9.55751 53.125 11.0025 53.125H15.525C16.975 53.125 18.1475 51.95 18.1475 50.5025V33.43C18.1468 32.7347 17.8703 32.068 17.3787 31.5763C16.887 31.0847 16.2203 30.8082 15.525 30.8075M32.26 6.875H27.74C26.29 6.875 25.1175 8.05 25.1175 9.4975V50.5C25.1175 51.95 26.2925 53.1225 27.7425 53.1225H32.26C33.71 53.1225 34.8825 51.9475 34.8825 50.5V9.5C34.8825 8.05 33.7075 6.8775 32.2575 6.8775M48.9975 19.8175H44.475C43.025 19.8175 41.8525 20.9925 41.8525 22.4425V50.5C41.8525 51.95 43.0275 53.1225 44.475 53.1225H48.995C49.6903 53.1218 50.357 52.8453 50.8487 52.3537C51.3403 51.862 51.6168 51.1953 51.6175 50.5V22.44C51.6175 20.99 50.4425 19.8175 48.9925 19.8175" stroke="#EDFF8C" stroke-width="3" stroke-linecap="round" stroke-linejoin="round"/>
</svg>
