<svg width="32" height="33" viewBox="0 0 32 33" fill="none" xmlns="http://www.w3.org/2000/svg">
<path d="M27.2667 16.5002L17.4667 6.7002C17.1333 6.36687 16.972 5.97798 16.9827 5.53354C16.9933 5.08909 17.1658 4.7002 17.5 4.36687C17.8342 4.03354 18.2231 3.86687 18.6667 3.86687C19.1102 3.86687 19.4991 4.03354 19.8333 4.36687L30.1 14.6002C30.3667 14.8669 30.5667 15.1669 30.7 15.5002C30.8333 15.8335 30.9 16.1669 30.9 16.5002C30.9 16.8335 30.8333 17.1669 30.7 17.5002C30.5667 17.8335 30.3667 18.1335 30.1 18.4002L19.8333 28.6669C19.5 29.0002 19.1053 29.1615 18.6493 29.1509C18.1933 29.1402 17.7991 28.9678 17.4667 28.6335C17.1342 28.2993 16.9675 27.9104 16.9667 27.4669C16.9658 27.0233 17.1324 26.6344 17.4667 26.3002L27.2667 16.5002Z" fill="black"/>
</svg>
