<svg width="15" height="27" viewBox="0 0 15 27" fill="none" xmlns="http://www.w3.org/2000/svg">
<path d="M3.73331 13.4998L13.5333 23.2998C13.8666 23.6331 14.028 24.022 14.0173 24.4665C14.0066 24.9109 13.8342 25.2998 13.5 25.6331C13.1658 25.9665 12.7769 26.1331 12.3333 26.1331C11.8898 26.1331 11.5009 25.9665 11.1666 25.6331L0.899976 15.3998C0.633309 15.1331 0.433309 14.8331 0.299976 14.4998C0.166642 14.1665 0.0999756 13.8331 0.0999756 13.4998C0.0999756 13.1665 0.166642 12.8331 0.299976 12.4998C0.433309 12.1665 0.633309 11.8665 0.899976 11.5998L11.1666 1.33313C11.5 0.999795 11.8946 0.838462 12.3506 0.849129C12.8066 0.859796 13.2009 1.03224 13.5333 1.36646C13.8658 1.70068 14.0324 2.08957 14.0333 2.53313C14.0342 2.97668 13.8675 3.36557 13.5333 3.6998L3.73331 13.4998Z" fill="black"/>
</svg>
