<svg width="60" height="60" viewBox="0 0 60 60" fill="none" xmlns="http://www.w3.org/2000/svg">
<path fill-rule="evenodd" clip-rule="evenodd" d="M27.36 3.125H32.64C37.235 3.125 40.875 3.125 43.7225 3.5075C46.6525 3.9025 49.025 4.7325 50.8975 6.6025C52.7675 8.475 53.5975 10.8475 53.9925 13.7775C54.375 16.6275 54.375 20.265 54.375 24.86V35.14C54.375 39.735 54.375 43.375 53.9925 46.2225C53.5975 49.1525 52.7675 51.525 50.8975 53.3975C49.025 55.2675 46.6525 56.0975 43.7225 56.4925C40.8725 56.875 37.235 56.875 32.64 56.875H27.36C22.765 56.875 19.125 56.875 16.2775 56.4925C13.3475 56.0975 10.975 55.2675 9.1025 53.3975C7.2325 51.525 6.4025 49.1525 6.0075 46.2225C5.625 43.3725 5.625 39.735 5.625 35.14V24.86C5.625 20.265 5.625 16.625 6.0075 13.7775C6.4025 10.8475 7.2325 8.475 9.1025 6.6025C10.975 4.7325 13.3475 3.9025 16.2775 3.5075C19.1275 3.125 22.765 3.125 27.36 3.125ZM16.775 7.225C14.26 7.5625 12.81 8.1975 11.75 9.255C10.695 10.3125 10.06 11.7625 9.7225 14.2775C9.3775 16.8475 9.3725 20.2325 9.3725 25V35C9.3725 39.7675 9.3775 43.155 9.7225 45.725C10.06 48.2375 10.695 49.6875 11.7525 50.745C12.81 51.8025 14.26 52.4375 16.775 52.775C19.345 53.12 22.73 53.125 27.4975 53.125H32.4975C37.265 53.125 40.6525 53.12 43.2225 52.775C45.735 52.4375 47.185 51.8025 48.2425 50.745C49.3 49.6875 49.935 48.2375 50.2725 45.7225C50.6175 43.155 50.6225 39.7675 50.6225 35V25C50.6225 20.2325 50.6175 16.8475 50.2725 14.275C49.935 11.7625 49.3 10.3125 48.2425 9.255C47.185 8.1975 45.735 7.5625 43.22 7.225C40.6525 6.88 37.265 6.875 32.4975 6.875H27.4975C22.73 6.875 19.3475 6.88 16.775 7.225ZM18.125 25C18.125 24.5027 18.3225 24.0258 18.6742 23.6742C19.0258 23.3225 19.5027 23.125 20 23.125H40C40.4973 23.125 40.9742 23.3225 41.3258 23.6742C41.6775 24.0258 41.875 24.5027 41.875 25C41.875 25.4973 41.6775 25.9742 41.3258 26.3258C40.9742 26.6775 40.4973 26.875 40 26.875H20C19.5027 26.875 19.0258 26.6775 18.6742 26.3258C18.3225 25.9742 18.125 25.4973 18.125 25ZM18.125 35C18.125 34.5027 18.3225 34.0258 18.6742 33.6742C19.0258 33.3225 19.5027 33.125 20 33.125H32.5C32.9973 33.125 33.4742 33.3225 33.8258 33.6742C34.1775 34.0258 34.375 34.5027 34.375 35C34.375 35.4973 34.1775 35.9742 33.8258 36.3258C33.4742 36.6775 32.9973 36.875 32.5 36.875H20C19.5027 36.875 19.0258 36.6775 18.6742 36.3258C18.3225 35.9742 18.125 35.4973 18.125 35Z" fill="#EDFF8C"/>
</svg>
